<svg width="411" height="505" viewBox="0 0 411 505" fill="none" xmlns="http://www.w3.org/2000/svg">
<path opacity="0.7" fill-rule="evenodd" clip-rule="evenodd" d="M195.234 502.784C21.4035 501.54 -111.893 345.664 -111.21 250.151C-110.556 158.647 -34.2831 55.866 35.5876 21.6272C177.665 -47.995 375.255 80.6927 414.517 162.4C471.025 279.999 331.43 503.759 195.234 502.784Z" fill="#82388B"/>
<path d="M289.468 133.155C289.468 133.155 259.096 201.445 262.916 205.881C266.736 210.316 273.45 210.134 275.763 207.085C277.034 205.421 285.688 184.44 291.916 168.727C297.183 155.468 301.801 143.567 301.801 143.567C301.801 143.567 297.649 133.236 289.468 133.155Z" fill="#4C4C4C"/>
<path d="M287.832 273.414C287.832 273.414 284.329 367.493 285.202 370.705C286.074 373.917 291.037 453.262 291.037 453.262H305.912C305.912 453.262 301.855 373.917 302.409 368.663C302.964 363.409 308.096 302.002 308.096 302.002C308.096 302.002 322.106 304.334 328.867 303.543C330.023 303.401 332.66 369.278 333.532 372.781C334.405 376.283 333.336 455 333.336 455H348.8C348.8 455 351.329 384.498 352.181 378.954C353.032 373.409 355.216 275.308 355.216 275.308C355.216 275.308 318.022 284.496 287.832 273.414Z" fill="#3C3C3A"/>
<path d="M296.284 105.142C296.284 105.142 292.071 91.4231 290.935 82.6061C289.529 71.6931 286.033 49.1302 297.42 46.8516C297.42 46.8516 308.806 62.1054 308.806 63.4712C308.806 64.837 294.688 104.912 294.688 104.912" fill="#4C4C4C"/>
<path d="M291.544 267.228C300.334 269.932 311.909 272.941 320.618 273.083C333.397 273.293 350.679 269.756 357.197 268.309C358.526 270.889 359.192 273.759 359.138 276.66C359.138 276.734 359.138 276.802 359.138 276.876C354.29 279.398 341.957 283.408 319.245 282.481C305.046 281.907 296.006 279.777 289.962 277.708C285.655 276.207 286.905 265.787 291.544 267.228Z" fill="#7A6356"/>
<path d="M349.95 270.772L354.266 270.248L355.669 281.813L351.353 282.337L349.95 270.772Z" fill="#4C4C4C"/>
<path d="M335.245 273.175L339.589 273.015L340.018 284.657L335.674 284.817L335.245 273.175Z" fill="#4C4C4C"/>
<path d="M293.717 271.052L298.032 271.587L296.598 283.148L292.283 282.613L293.717 271.052Z" fill="#4C4C4C"/>
<path d="M303.294 272.491L322.862 273.52L322.222 285.687L302.654 284.658L303.294 272.491Z" fill="#57453F"/>
<path d="M285.972 264.848C285.972 264.848 290.78 275.335 323.235 275.862C355.69 276.389 358.11 270.182 358.11 270.182C358.11 270.182 351.389 252.427 355.054 209.972C360.01 152.499 360.558 146.509 349.185 124.865L315.817 147.597L292.72 130.295C292.72 130.295 292.545 128.043 290.435 154.555C289.164 170.451 287.636 203.913 288.907 232.055C289.793 250.838 285.972 264.848 285.972 264.848Z" fill="white"/>
<path d="M325.939 142.512C325.5 142.337 322.809 155.805 323.438 160.187C324.066 164.568 327.657 222.751 327.657 231.351C327.657 239.952 329.144 288.824 329.144 288.824L334.729 285.788C334.729 285.788 341.491 232.291 340.051 228.227C338.61 224.164 328.319 143.452 325.939 142.512Z" fill="url(#paint0_linear)"/>
<path d="M294.262 97.4273C288.237 92.4306 285.918 81.6123 292.646 79.6177C299.374 77.623 300.246 92.8701 300.246 92.8701C300.246 92.8701 304.431 105.872 294.262 97.4273Z" fill="#FFC59F"/>
<path d="M293.633 130.809C297.372 138.084 316.054 147.597 316.054 147.597C316.054 147.597 349.469 132.479 348.705 126.116C346.224 105.352 349.713 100.423 352.343 83.4784C354.973 66.5342 352.89 61.6186 352.89 61.6186C353.938 45.5264 337.765 30.5159 320.023 33.3828C302.443 35.2016 291.983 47.5345 292.01 65.8378C292.01 77.8799 292.754 99.5707 293.532 122.715C293.62 125.244 293.633 130.809 293.633 130.809Z" fill="#FFD0A4"/>
<path d="M324.148 67.4469C326.022 66.5273 328.042 65.9393 330.118 65.7093C333.789 65.2495 338.11 67.0074 338.11 67.0074C338.11 67.0074 343.566 69.3266 342.843 69.9419C342.478 70.2394 335.405 69.5295 333.059 69.3942C330.713 69.259 324.797 69.6647 324.269 69.516C324.046 69.4584 323.847 69.3315 323.701 69.1536C323.554 68.9756 323.468 68.7558 323.455 68.5258C323.441 68.2958 323.501 68.0674 323.625 67.8735C323.75 67.6796 323.933 67.5303 324.148 67.4469Z" fill="#4C4C4C"/>
<path d="M308.711 67.1224C307.481 66.4463 305.141 66.2975 303.099 66.2367C299.962 66.142 295.662 69.0291 295.662 69.0291C295.662 69.0291 292.436 71.7337 293.18 72.3625C293.532 72.6465 299.793 70.0366 301.733 69.6174C303.674 69.1982 308.65 69.6174 309.063 69.401C309.239 69.2514 309.374 69.0591 309.455 68.8424C309.536 68.6257 309.56 68.3919 309.525 68.1633C309.489 67.9347 309.396 67.719 309.254 67.5367C309.111 67.3545 308.924 67.2118 308.711 67.1224Z" fill="#4C4C4C"/>
<path d="M305.073 31.2936L305.459 31.2395L305.073 31.2936Z" fill="#808080"/>
<g style="mix-blend-mode:overlay" opacity="0.5">
<path style="mix-blend-mode:overlay" opacity="0.5" d="M320.023 33.3827C337.765 30.5091 353.939 45.5533 352.89 61.6253C352.89 61.6253 354.676 65.8242 352.85 79.9218C348.867 80.6791 346.805 90.064 346.805 90.064C346.805 90.064 346.9 74.6005 345.662 69.3401C342.282 55.2763 322.971 48.9273 319.489 52.7881C319.489 52.7881 312.274 53.6603 307.17 52.5379C304.607 52.006 302.003 51.6983 299.387 51.6184C299.387 51.6184 294.607 52.2945 292.179 61.8755C293.579 45.7697 303.748 35.0663 320.023 33.3827Z" fill="url(#paint1_linear)"/>
</g>
<path d="M296.5 80.8106C296.413 77.3762 299.412 74.5143 303.197 74.4185C306.982 74.3227 310.121 77.0292 310.208 80.4636C310.295 83.898 307.297 86.7598 303.512 86.8556C299.726 86.9514 296.587 84.245 296.5 80.8106Z" fill="#57453F"/>
<path d="M297.125 81.1233C297.041 77.8083 299.936 75.046 303.591 74.9535C307.245 74.861 310.276 77.4733 310.36 80.7883C310.444 84.1032 307.549 86.8655 303.895 86.958C300.24 87.0505 297.209 84.4382 297.125 81.1233Z" fill="white"/>
<path d="M311.456 85.6218L311.821 90.7131L296.946 91.795C296.946 91.795 296.885 87.4136 296.608 87.1701C296.331 86.9267 298.305 84.8104 303.938 84.4047C309.57 83.999 311.456 85.6218 311.456 85.6218Z" fill="#FFD0A4"/>
<path opacity="0.05" d="M309.712 86.7103C309.712 86.7103 305.209 85.2633 302.186 86.3046C299.164 87.3458 295.695 88.4818 299.042 88.2451C302.389 88.0085 310.158 87.8124 309.712 86.7103Z" fill="#1C1C1B"/>
<path d="M331.345 87.239C327.558 87.0876 324.601 84.1586 324.739 80.6969C324.878 77.2353 328.06 74.5518 331.846 74.7033C335.633 74.8548 338.59 77.7838 338.451 81.2454C338.313 84.7071 335.131 87.3905 331.345 87.239Z" fill="#57453F"/>
<path d="M331.091 87.3739C327.437 87.2329 324.58 84.4113 324.709 81.0716C324.838 77.732 327.904 75.1389 331.557 75.2799C335.21 75.4209 338.067 78.2425 337.938 81.5822C337.81 84.9218 334.744 87.5149 331.091 87.3739Z" fill="white"/>
<path d="M323.546 85.8787L323.106 90.9633L337.981 92.2412C337.981 92.2412 338.096 87.8598 338.38 87.6232C338.664 87.3865 336.717 85.2431 331.092 84.7563C325.466 84.2695 323.546 85.8787 323.546 85.8787Z" fill="#FFD0A4"/>
<path opacity="0.05" d="M325.263 86.9876C325.263 86.9876 329.787 85.6353 332.795 86.6833C335.804 87.7313 339.253 88.9416 335.919 88.6644C332.586 88.3872 324.81 88.0897 325.263 86.9876Z" fill="#1C1C1B"/>
<path d="M305.121 82.4372C303.821 82.4372 302.768 81.3837 302.768 80.0842C302.768 78.7847 303.821 77.7312 305.121 77.7312C306.42 77.7312 307.474 78.7847 307.474 80.0842C307.474 81.3837 306.42 82.4372 305.121 82.4372Z" fill="#57453F"/>
<path d="M307.507 80.9784C306.384 80.9351 305.494 80.3706 305.519 79.7175C305.544 79.0645 306.475 78.5703 307.599 78.6137C308.722 78.657 309.612 79.2215 309.587 79.8745C309.561 80.5275 308.63 81.0217 307.507 80.9784Z" fill="white"/>
<path d="M300.99 101.592C301.115 101.754 301.287 101.872 301.483 101.93C301.663 102.004 301.849 102.065 302.038 102.113C302.416 102.214 302.802 102.282 303.18 102.35C303.951 102.465 304.722 102.539 305.499 102.593C307.048 102.701 308.596 102.742 310.145 102.749C313.252 102.786 316.356 102.508 319.408 101.917C322.459 101.349 325.474 100.597 328.434 99.6653C329.915 99.1987 331.382 98.6916 332.829 98.1169C333.546 97.8262 334.263 97.5219 334.966 97.1838C335.687 96.891 336.354 96.4796 336.94 95.9668V95.9194C336.94 95.9194 336.94 95.9194 336.9 95.9194C335.58 96.7147 334.193 97.3934 332.755 97.9479C331.321 98.5226 329.854 99.0365 328.38 99.5098C325.429 100.448 322.423 101.209 319.381 101.788C316.34 102.392 313.245 102.679 310.145 102.647C308.596 102.647 307.048 102.647 305.499 102.519C304.729 102.465 303.958 102.397 303.194 102.282C302.811 102.226 302.432 102.149 302.058 102.052C301.686 101.991 301.338 101.83 301.05 101.586H301.003L300.99 101.592Z" fill="#7C4B28"/>
<path opacity="0.05" d="M303.485 102.356C307.433 102.356 311.524 100.936 313.491 101.315C317.055 101.991 318.549 99.9627 321.166 100.199C323.106 100.362 335.595 96.7578 335.595 96.7578C335.595 96.7578 326.419 102.492 317.237 103.519C307.548 104.547 303.485 102.356 303.485 102.356Z" fill="#FF0000"/>
<g style="mix-blend-mode:overlay" opacity="0.5">
<path style="mix-blend-mode:overlay" opacity="0.5" d="M293.633 130.809C297.372 138.084 316.054 147.597 316.054 147.597C316.054 147.597 349.469 132.479 348.705 126.116C347.258 113.993 347.846 107.272 349.104 100.423C346.704 102.586 344.168 105.96 343.127 109.294C341.991 112.938 323.755 131.221 320.226 133.155C316.696 135.089 316.805 139.646 315.669 139.761C314.533 139.876 314.188 137.367 311.686 134.183C309.482 131.377 296.568 122.607 293.43 120.518C293.43 121.261 293.484 122.005 293.505 122.756C293.62 125.244 293.633 130.809 293.633 130.809Z" fill="url(#paint2_linear)"/>
</g>
<path d="M333.519 138.091L324.729 144.541C324.729 144.541 335.047 231.351 329.178 288.837H360.619L357.914 198.667L361.707 149.68C362.451 141.1 346.609 125.136 345.602 125.041C341.849 124.838 333.519 138.091 333.519 138.091Z" fill="#4C4C4C"/>
<g opacity="0.3">
<path opacity="0.3" d="M349.658 289.398C353.385 289.241 357.099 288.864 360.781 288.269L357.88 198.667L360.49 164.934C357.583 161.945 354.75 159.085 354.75 159.085L350.997 154.393C350.997 154.393 351.937 171.756 353.972 178.795C356.007 185.833 352.721 197.727 348.807 198.971C344.892 200.215 340.517 199.593 344.27 201.162C348.022 202.73 355.223 232.44 355.223 238.539C355.223 244.638 357.252 268.729 353.817 272.955C351.051 276.335 335.757 279.838 329.861 281.068C329.712 283.097 329.367 286.863 329.185 288.817C329.178 288.837 340.997 289.561 349.658 289.398Z" fill="url(#paint3_linear)"/>
</g>
<path d="M303.843 141.945C303.843 141.945 308.535 149.686 308.299 156.022C308.062 162.357 307.359 235.09 306.656 238.14C305.952 241.189 295.837 297.499 295.837 297.499L292.551 287.411C292.551 287.411 297.48 259.012 298.413 241.433C299.347 223.853 303.843 141.945 303.843 141.945Z" fill="url(#paint4_linear)"/>
<path d="M349.219 124.865C340.003 153.439 365.277 180.782 376.048 220.438C380.105 230.006 387.915 223.65 387.448 220.533C385.21 205.556 369.341 141.086 349.219 124.865Z" fill="#4C4C4C"/>
<path d="M376.17 218.802C370.2 237.247 359.354 278.979 359.354 278.979L368.712 284.611C368.712 284.611 384.5 230.777 387.117 222C388.679 213.183 378.875 210.506 376.17 218.802Z" fill="#4C4C4C"/>
<path d="M369.213 290.697C369.501 288.256 369.341 285.784 368.739 283.401C366.197 272.644 352.742 274.131 354.662 294.983L354.554 295.078C354.676 299.135 359.023 314.057 360.369 313.956C360.619 313.942 360.864 313.875 361.087 313.759C361.309 313.642 361.504 313.48 361.658 313.282C361.813 313.084 361.923 312.855 361.982 312.611C362.04 312.367 362.046 312.113 361.998 311.867C363.168 315.572 364.392 318.628 365 318.567C366.353 318.459 367.198 317.215 366.217 314.876C365.737 313.74 365.048 309.514 364.473 305.335C366.278 310.744 368.834 316.931 369.632 316.789C370.842 316.566 371.498 315.234 370.396 313.009C369.787 311.792 368.597 306.762 367.624 302.225C369.382 307.404 371.532 312.658 372.309 312.523C373.662 312.293 374.372 310.954 373.175 308.729C372.188 306.843 369.956 295.037 369.213 290.697Z" fill="#FFD0A4"/>
<path d="M315.851 147.597C315.851 147.597 329.415 143.452 330.05 142.979C330.686 142.506 342.708 130.45 342.708 130.45C342.708 130.45 331.605 131.857 330.537 132.323C329.469 132.79 320.395 136.38 320.395 136.38L315.851 147.597Z" fill="#808080"/>
<path d="M298.217 136.333L306.5 141.945C306.5 141.945 303.37 239.31 303.843 240.486C304.316 241.663 295.864 297.499 295.864 297.499L282.957 293.273L285.661 233.346C285.661 233.346 284.586 177.983 284.586 158.368C284.586 138.753 290.374 129.734 293.484 128.828L298.217 136.333Z" fill="#4C4C4C"/>
<path d="M300.631 133.594C300.631 133.594 308.745 135.785 309.239 136.299C309.732 136.813 312.518 145.92 312.518 145.92L306.345 142.54L300.631 133.594Z" fill="#808080"/>
<path d="M293.545 54.3839C293.545 54.3839 286.872 34.6675 302.497 32.4633C307.359 31.7871 324.81 27 324.81 27L323.289 29.4274H351.687L348.043 32.1319C348.043 32.1319 359.537 40.2457 359.212 50.1985C359.037 55.1682 349.604 84.4047 349.604 84.4047L346.663 68.8534C345.552 62.8479 342.127 57.5188 337.125 54.0134C332.124 50.508 325.946 49.1065 319.922 50.1106C319.319 50.2095 318.723 50.345 318.137 50.5163C316.162 51.1249 302.585 51.348 302.653 48.995C302.687 47.8929 295.364 50.895 293.545 54.3839Z" fill="#4C4C4C"/>
<path d="M349.483 57.5347C349.828 58.1026 349.604 84.4047 349.604 84.4047L347.779 106.717C347.779 106.717 357.11 93.5123 358.137 83.3837C359.165 73.255 360.639 48.6366 356.542 45.2559C352.444 41.8751 349.483 57.5347 349.483 57.5347Z" fill="#4C4C4C"/>
<path d="M348.063 65.5403C348.063 65.9392 346.805 90.0776 346.805 90.0776C348.337 88.5461 349.321 86.5521 349.604 84.4047C349.856 82.3535 350.33 80.3358 351.018 78.387L348.063 65.5403Z" fill="#4C4C4C"/>
<path d="M332.349 82.8024C331.05 82.8024 329.996 81.7489 329.996 80.4494C329.996 79.1499 331.05 78.0964 332.349 78.0964C333.649 78.0964 334.702 79.1499 334.702 80.4494C334.702 81.7489 333.649 82.8024 332.349 82.8024Z" fill="#57453F"/>
<path opacity="0.05" d="M312.268 107.65C312.613 107.65 325.189 106.4 323.086 107.312C320.983 108.225 317.562 109.814 315.567 109.469C314.307 109.215 313.155 108.58 312.268 107.65Z" fill="#1C1C1B"/>
<path opacity="0.1" d="M315.202 146.84C314.612 146.957 314.08 147.273 313.695 147.736C313.311 148.199 313.098 148.781 313.093 149.382C312.951 160.451 311.598 212.453 311.598 218.924C311.598 226.199 314.059 270.662 317.812 270.662C321.565 270.662 321.274 224.86 320.517 218.924C319.347 209.776 318.536 162.621 318.623 149.382C318.625 148.996 318.541 148.613 318.378 148.263C318.215 147.912 317.976 147.602 317.679 147.354C317.381 147.107 317.033 146.928 316.659 146.831C316.284 146.734 315.893 146.721 315.513 146.793L315.202 146.84Z" fill="black"/>
<path d="M313.769 146.84C313.181 146.959 312.652 147.277 312.27 147.74C311.889 148.202 311.678 148.782 311.673 149.382C311.531 160.451 310.172 212.453 310.172 218.924C310.172 226.199 312.64 270.662 316.392 270.662C320.145 270.662 319.854 224.86 319.097 218.924C317.927 209.775 317.109 162.621 317.204 149.382C317.205 148.995 317.122 148.612 316.958 148.26C316.794 147.909 316.555 147.599 316.257 147.351C315.959 147.104 315.609 146.925 315.234 146.828C314.859 146.732 314.467 146.72 314.086 146.792L313.769 146.84Z" fill="#0071BC"/>
<path d="M316.115 147.597C316.412 147.144 319.719 137.252 319.874 137.698C321.044 141.079 321.551 150.762 321.551 150.762C322.606 150.011 351.173 126.934 351.173 126.934L348.631 118.638C348.631 118.638 320.456 134.771 319.076 136.684C317.724 139.619 316.115 147.597 316.115 147.597Z" fill="white"/>
<path d="M312.518 145.954C312.207 144.859 311.659 137.036 309.137 135.319C306.615 133.601 292.321 122.884 292.321 122.884L292.734 130.322C292.734 130.322 298.697 139.788 306.257 149.382C307.163 142.716 309.164 136.015 309.191 137.063L312.518 145.954Z" fill="white"/>
<path d="M309.076 144.893C309.263 144.256 309.685 143.715 310.256 143.378C310.828 143.042 311.506 142.935 312.153 143.081C313.798 143.432 315.495 143.473 317.156 143.202C317.828 143.102 318.513 143.268 319.065 143.664C319.616 144.061 319.992 144.656 320.111 145.325L320.212 145.941C320.316 146.534 320.211 147.146 319.915 147.671C319.619 148.196 319.151 148.602 318.59 148.821L315.743 149.937C315.373 150.08 314.975 150.138 314.58 150.107C314.184 150.075 313.8 149.955 313.458 149.754L310.253 147.868C309.754 147.573 309.368 147.12 309.155 146.582C308.942 146.043 308.914 145.449 309.076 144.893Z" fill="#0071BC"/>
<path opacity="0.2" d="M324.154 43.0854C324.154 43.0854 339.834 47.2843 342.843 53.2209C342.843 53.2209 340.706 44.2011 324.154 43.0854Z" fill="black"/>
<path opacity="0.2" d="M333.864 42.2133C333.614 42.139 344.811 47.9944 345.061 54.7153C345.061 54.722 346.798 46.0065 333.864 42.2133Z" fill="black"/>
<path opacity="0.2" d="M303.214 44.5799C303.072 45.1208 309.063 35.3776 317.771 34.5054C317.771 34.5189 306.331 33.0246 303.214 44.5799Z" fill="black"/>
<g opacity="0.37">
<path opacity="0.37" d="M358.137 83.3837C358.529 79.4688 358.996 73.397 359.179 67.217C356.596 71.2063 353.093 77.65 352.153 81.2809C351.339 84.0301 350.35 86.7244 349.192 89.3473L347.772 106.724C347.772 106.724 357.11 93.5123 358.137 83.3837Z" fill="url(#paint5_linear)"/>
</g>
<path d="M353.925 97.4273C359.949 92.4306 362.275 81.6123 355.548 79.6177C348.82 77.623 347.914 92.8701 347.914 92.8701C347.914 92.8701 343.756 105.872 353.925 97.4273Z" fill="#FFD0A4"/>
<path opacity="0.05" d="M350.213 90.4159C350.213 90.4159 350.842 89.0636 351.957 89.1921C353.073 89.3205 354.554 89.8682 356.183 86.3996C356.168 86.0502 356.068 85.7097 355.893 85.4072C355.717 85.1046 355.471 84.8489 355.176 84.6619C354.209 84.1615 353.33 84.0871 352.471 85.338C351.613 86.5889 349.936 88.7593 350.213 90.4159Z" fill="#1C1C1B"/>
<path d="M308.035 140.626C308.136 140.315 309.996 143.662 311.348 144.25C312.7 144.839 310.408 146.184 310.408 146.184L307.156 144.649C307.324 143.284 307.618 141.937 308.035 140.626Z" fill="#0071BC"/>
<path d="M320.801 142.377C320.131 142.769 319.5 143.221 318.914 143.729C318.914 143.905 321.112 145.454 321.112 145.244C321.125 144.554 320.801 142.377 320.801 142.377Z" fill="#0071BC"/>
<path d="M284.133 255.754C284.721 255.754 290.584 256.342 291.76 255.99C291.678 257.483 291.52 258.97 291.287 260.446C291.05 261.271 284.248 261.271 284.248 261.271L284.133 255.754Z" fill="#212121"/>
<path d="M341.024 255.165C341.612 255.165 358.388 252.941 359.564 252.589C359.564 252.589 360.031 255.869 359.794 256.694C359.557 257.518 347.008 259.398 343.844 259.628L340.673 259.858L341.024 255.165Z" fill="#212121"/>
<path d="M335.338 268.499C334.486 268.499 333.796 267.809 333.796 266.957C333.796 266.106 334.486 265.416 335.338 265.416C336.189 265.416 336.879 266.106 336.879 266.957C336.879 267.809 336.189 268.499 335.338 268.499Z" fill="#212121"/>
<path d="M335.148 254.787C334.297 254.787 333.607 254.096 333.607 253.245C333.607 252.394 334.297 251.703 335.148 251.703C336 251.703 336.69 252.394 336.69 253.245C336.69 254.096 336 254.787 335.148 254.787Z" fill="#212121"/>
<path d="M334.729 239.776C333.878 239.776 333.188 239.086 333.188 238.234C333.188 237.383 333.878 236.693 334.729 236.693C335.581 236.693 336.271 237.383 336.271 238.234C336.271 239.086 335.581 239.776 334.729 239.776Z" fill="#212121"/>
<path d="M334.778 81.4484C333.655 81.405 332.765 80.8405 332.79 80.1875C332.816 79.5345 333.747 79.0403 334.87 79.0836C335.993 79.127 336.883 79.6915 336.858 80.3445C336.833 80.9975 335.902 81.4917 334.778 81.4484Z" fill="white"/>
<path opacity="0.05" d="M334.729 94.6617C334.729 94.6617 336.156 95.7571 336.994 95.7909C337.833 95.8247 336.927 98.6983 337.413 98.536C337.9 98.3738 338.61 95.6962 338.09 94.9186C337.569 94.1411 334.932 93.8503 334.729 94.6617Z" fill="#1C1C1B"/>
<path opacity="0.05" d="M301.071 104.304C301.071 104.304 301.206 102.512 300.773 101.789C300.34 101.065 303.241 100.254 302.842 99.9359C302.443 99.6181 299.806 100.49 299.461 101.376C299.117 102.262 300.286 104.581 301.071 104.304Z" fill="#1C1C1B"/>
<path opacity="0.2" d="M307.683 44.9516C307.311 45.4587 307.447 37.4397 318.948 35.5667L344.783 31.3408C344.783 31.3408 346.812 31.8074 343.37 32.8621C339.929 33.9169 346.426 36.2429 348.299 41.1923C350.172 46.1416 344.919 34.5052 333.282 35.9183C321.646 37.3315 314.634 35.5667 307.683 44.9516Z" fill="black"/>
<path d="M338.394 375.472C338.205 373.329 338.394 375.472 338.008 374.884C337.623 374.295 333.532 301.562 334.31 300.007C335.088 298.452 329.645 299.622 329.645 299.622C318.752 300.589 304.553 297.282 304.553 297.282C304.553 297.282 298.136 368.859 296.973 369.441C295.81 370.022 298.136 371.192 298.136 371.192L302.193 453.262H305.892C305.892 453.262 301.835 373.917 302.389 368.663C302.944 363.409 308.076 302.002 308.076 302.002C308.076 302.002 322.106 304.335 328.867 303.544C330.023 303.402 332.66 369.278 333.532 372.781C334.405 376.283 333.336 455 333.336 455H336.717C336.974 443.391 338.576 377.419 338.394 375.472Z" fill="url(#paint6_linear)"/>
<path opacity="0.3" d="M285.08 199.809L290.617 164.785L285.08 185.793V199.809Z" fill="url(#paint7_linear)"/>
<path opacity="0.3" d="M271.063 177.956L273.153 200.377L268.021 185.942L271.063 177.956Z" fill="url(#paint8_linear)"/>
<path d="M245.14 160.708C248.406 168.909 260.245 208.897 265.424 209.891C270.604 210.884 275.228 207.74 275.046 204.826C274.863 201.912 261.144 165.312 258.724 155.853C257.574 151.316 241.881 152.513 245.14 160.708Z" fill="#4C4C4C"/>
<path d="M251.881 153.994C251.881 153.994 255.329 149.578 256.033 139.795C256.736 130.011 255.458 124.737 249.447 118.3C242.084 110.416 238.372 120.464 237.953 122.837C237.953 122.837 234.741 125.163 235.796 131.194C236.911 137.584 241.881 146.434 244.241 153.318C246.6 160.201 248.183 157.638 251.881 153.994Z" fill="#FFDBBB"/>
<path d="M253.896 147.009C254.816 148.226 255.512 143.987 259.305 139.747C263.098 135.508 267.662 130.187 262.794 130.815C257.926 131.444 253.159 137.103 253.159 137.103C253.159 137.103 250.61 142.655 253.896 147.009Z" fill="#FFDBBB"/>
<path d="M245.546 159.964C245.546 159.964 244.241 156.881 244.241 155.589C244.241 154.298 255.059 149.342 255.059 149.342L257.236 154.893C257.236 154.893 256.202 159.409 245.552 159.964" fill="white"/>
<defs>
<linearGradient id="paint0_linear" x1="323.377" y1="215.671" x2="340.24" y2="215.671" gradientUnits="userSpaceOnUse">
<stop stop-opacity="0"/>
<stop offset="1"/>
</linearGradient>
<linearGradient id="paint1_linear" x1="-208130" y1="2946.43" x2="-213723" y2="2946.43" gradientUnits="userSpaceOnUse">
<stop stop-opacity="0"/>
<stop offset="1"/>
</linearGradient>
<linearGradient id="paint2_linear" x1="16327.5" y1="6559.58" x2="15913.4" y2="7844.64" gradientUnits="userSpaceOnUse">
<stop stop-opacity="0"/>
<stop offset="1"/>
</linearGradient>
<linearGradient id="paint3_linear" x1="9134.75" y1="39079.4" x2="7657.94" y2="39079.4" gradientUnits="userSpaceOnUse">
<stop stop-opacity="0"/>
<stop offset="1"/>
</linearGradient>
<linearGradient id="paint4_linear" x1="282.47" y1="221.682" x2="313.911" y2="218.166" gradientUnits="userSpaceOnUse">
<stop/>
<stop offset="1" stop-opacity="0"/>
</linearGradient>
<linearGradient id="paint5_linear" x1="2911.51" y1="2869.46" x2="3323" y2="2986.7" gradientUnits="userSpaceOnUse">
<stop stop-opacity="0"/>
<stop offset="1"/>
</linearGradient>
<linearGradient id="paint6_linear" x1="13944.5" y1="81739.5" x2="11364.9" y2="81739.5" gradientUnits="userSpaceOnUse">
<stop stop-opacity="0"/>
<stop offset="1"/>
</linearGradient>
<linearGradient id="paint7_linear" x1="-502.592" y1="8209.17" x2="-547.945" y2="8209.17" gradientUnits="userSpaceOnUse">
<stop stop-opacity="0"/>
<stop offset="1"/>
</linearGradient>
<linearGradient id="paint8_linear" x1="-594.504" y1="5555.41" x2="-633.456" y2="5555.41" gradientUnits="userSpaceOnUse">
<stop stop-opacity="0"/>
<stop offset="1"/>
</linearGradient>
</defs>
</svg>
