<svg width="179" height="225" viewBox="0 0 179 225" fill="none" xmlns="http://www.w3.org/2000/svg">
<g clip-path="url(#clip0)">
<g style="mix-blend-mode:multiply" opacity="0.3">
<path d="M15.2919 216.401C15.2919 220.889 41.0973 224.537 72.9404 224.537C104.784 224.537 130.604 220.889 130.604 216.401C130.604 211.913 104.798 208.265 72.9404 208.265C41.0828 208.265 15.2919 211.913 15.2919 216.401Z" fill="#4D4D4D"/>
</g>
<path d="M110.72 193.498C110.241 199.868 110.241 206.223 109.268 211.884C104.435 215.431 95.727 213.332 89.9361 211.884C89.9361 205.514 89.9361 198.449 89.4426 192.079C95.576 192.197 101.711 191.96 107.817 191.37C108.831 192.817 109.341 194.557 109.268 196.321" fill="#ED9498"/>
<path d="M88.9199 193.498C88.4265 199.868 88.4265 206.223 87.4685 211.884C82.621 215.431 73.9272 213.332 68.1217 211.884C68.1217 205.514 68.1217 198.449 67.6428 192.079C73.7762 192.197 79.9113 191.96 86.0172 191.37C87.0246 192.82 87.5339 194.557 87.4685 196.321" fill="#ED9498"/>
<path d="M33.2904 115.045C27.2962 120.836 20.0829 125.932 15.424 132.939C14.1903 134.778 12.0133 133.909 11.2295 132.331C8.80114 128.458 7.05831 124.198 6.07715 119.736C5.24986 116.377 3.60982 110.21 6.45451 107.3C9.5169 104.188 15.6127 106.084 19.1976 107.054C23.6968 108.285 28.0945 109.863 32.4921 111.397C32.8229 111.547 33.1141 111.772 33.3425 112.054C33.5708 112.336 33.7301 112.668 33.8076 113.022C33.8851 113.376 33.8787 113.743 33.7889 114.095C33.6991 114.446 33.5284 114.772 33.2904 115.045Z" fill="#EF8077"/>
<path d="M26.9028 105.259C39.7329 92.0266 57.8316 87.973 75.698 88.8127C109.689 90.4052 135.944 115.61 134.827 151.065C134.029 175.966 116.511 196.886 93.3031 204.631C73.3468 211.305 49.3555 208.974 32.5051 195.945C18.9057 185.449 11.6053 168.51 10.4732 151.702C9.83361 143.247 10.9639 134.753 13.7923 126.757C16.6208 118.762 21.0855 111.441 26.9028 105.259Z" fill="#FFA9A2"/>
<path d="M30.3 141.901C35.525 137.123 42.9125 135.661 50.1838 135.965C64.059 136.544 74.7556 145.636 74.3056 158.405C73.9718 167.395 66.8311 174.938 57.3681 177.732C49.2259 180.135 39.4582 179.296 32.5787 174.605C29.9874 172.785 27.8361 170.411 26.2819 167.656C24.7276 164.901 23.8096 161.834 23.5947 158.68C23.359 155.559 23.8404 152.425 25.0024 149.517C26.1644 146.609 27.9763 144.005 30.3 141.901Z" fill="#EF8077"/>
<path d="M52.955 150.486C56.4238 152.542 55.8577 158.926 55.9738 162.343C56.09 165.759 50.3716 165.803 50.5893 162.343C50.6909 160.548 50.9086 158.767 51.0247 156.972C51.1408 155.177 50.6763 153.483 50.7634 151.745C50.7609 151.489 50.8269 151.236 50.9546 151.013C51.0823 150.79 51.2671 150.605 51.4902 150.477C51.7132 150.349 51.9664 150.282 52.2238 150.283C52.4812 150.285 52.7336 150.355 52.955 150.486Z" fill="#852438"/>
<path d="M39.3997 151.745C39.3997 153.193 39.0659 154.786 39.0949 156.32C39.0949 158.333 39.4432 160.345 39.5738 162.343C39.777 165.803 34.0296 165.817 34.1892 162.343C34.3489 158.868 33.7248 152.542 37.2081 150.486C37.4295 150.355 37.6819 150.285 37.9393 150.283C38.1967 150.282 38.4499 150.349 38.6729 150.477C38.896 150.605 39.0808 150.79 39.2085 151.013C39.3362 151.236 39.4022 151.489 39.3997 151.745Z" fill="#852438"/>
<path d="M75.9601 134.952C75.1625 133.924 74.1136 133.118 72.9141 132.611C71.7145 132.104 70.4045 131.913 69.1097 132.056C65.8731 132.259 65.0168 134.952 62.651 136.399C62.5646 136.45 62.4677 136.479 62.368 136.486C62.2682 136.493 62.1682 136.477 62.0757 136.439C61.9831 136.401 61.9005 136.343 61.8342 136.268C61.7679 136.194 61.7196 136.105 61.6931 136.009C60.5901 132.476 65.3941 129.914 68.1953 129.393C70.0171 129.048 71.9015 129.281 73.5833 130.06C75.2651 130.839 76.6598 132.125 77.5712 133.736C78.1082 134.72 76.7003 135.936 75.9601 134.981V134.952Z" fill="#852438"/>
<path d="M21.9686 133.967C22.4518 132.474 23.4394 131.195 24.7628 130.348C26.0863 129.5 27.6635 129.137 29.2255 129.32C31.9685 129.74 36.3082 132.968 34.6971 136.153C34.6537 136.228 34.5958 136.293 34.5269 136.345C34.458 136.397 34.3794 136.435 34.2957 136.457C34.212 136.478 34.1249 136.483 34.0393 136.471C33.9537 136.458 33.8715 136.429 33.7973 136.385C31.925 135.299 31.6202 132.91 29.3416 132.158C27.0629 131.405 24.9875 132.939 23.8554 134.749C23.2458 135.676 21.5332 135.097 21.9686 133.967Z" fill="#852438"/>
<path d="M80.1255 111.455C84.4796 109.863 88.9208 108.285 93.42 107.112C97.0049 106.142 103.101 104.217 106.149 107.358C109.196 110.5 107.368 116.435 106.54 119.794C105.554 124.257 103.807 128.517 101.374 132.389C100.604 133.967 98.4708 134.836 97.1936 132.997C92.5347 125.99 85.3214 120.894 79.3272 115.103C79.0892 114.829 78.9185 114.504 78.8287 114.153C78.7389 113.801 78.7325 113.434 78.81 113.08C78.8875 112.726 79.0468 112.394 79.2751 112.112C79.5035 111.83 79.7946 111.605 80.1255 111.455Z" fill="#EF8077"/>
<path d="M79.8789 201.678C79.5161 206.455 79.5161 211.233 78.7904 215.474C75.1619 218.124 68.6308 216.531 64.2766 215.474C64.2766 210.697 64.2766 205.34 63.9138 200.621C68.5163 200.71 73.1202 200.531 77.7018 200.085C78.4628 201.173 78.8452 202.48 78.7904 203.806" fill="#FFA9A2"/>
<path d="M81.4468 201.678C81.3307 205.036 81.4468 208.366 81.4468 211.725C81.4468 214.62 81.8532 216.821 79.023 218.428C74.6689 220.903 68.0941 219.572 63.6094 218.138C63.0254 217.977 62.5104 217.629 62.1435 217.148C61.7765 216.667 61.5777 216.079 61.5775 215.474C61.7516 213.013 61.5775 210.509 61.5775 208.048C61.5775 205.586 61.6791 203.038 61.3888 200.621C61.3888 199.933 61.6625 199.274 62.1497 198.788C62.6369 198.302 63.2977 198.029 63.9867 198.029C68.5876 197.87 73.203 197.754 77.7748 197.262C78.2761 197.262 78.7682 197.397 79.1996 197.651C79.631 197.906 79.9861 198.272 80.2276 198.71C81.0173 199.988 81.4577 201.451 81.5048 202.952C81.508 203.421 81.386 203.883 81.1514 204.29C80.9168 204.697 80.5779 205.035 80.1696 205.268C77.2668 206.976 76.4395 203.415 75.322 201.562L77.7748 203.01C73.1907 203.417 68.584 203.514 63.9867 203.299L66.4541 200.548C66.4541 203.01 66.8605 205.485 66.904 207.975C66.9476 210.465 66.8169 212.941 66.904 215.402C66.2364 214.504 65.5542 213.621 64.8721 212.738C68.9069 213.419 73.4352 215.214 77.3539 213.202L76.1783 214.649C77.2177 210.386 77.9309 206.049 78.3118 201.678C78.515 199.709 81.5193 199.622 81.4468 201.678Z" fill="#FFA9A2"/>
<path d="M57.541 201.678C57.1782 206.455 57.1782 211.233 56.4525 215.474C52.824 218.124 46.2929 216.531 41.9387 215.474C41.9387 210.697 41.9387 205.34 41.5759 200.621C46.1784 200.71 50.7823 200.531 55.364 200.085C56.1249 201.173 56.5073 202.48 56.4525 203.806" fill="#FFA9A2"/>
<path d="M59.1089 201.678C58.9783 205.036 59.1089 208.366 59.1089 211.725C59.1089 214.62 59.5153 216.821 56.6851 218.428C52.331 220.903 45.7563 219.572 41.2715 218.138C40.6875 217.977 40.1726 217.629 39.8056 217.148C39.4386 216.667 39.2398 216.079 39.2396 215.474C39.4137 213.013 39.2396 210.509 39.2396 208.048C39.2396 205.586 39.3412 203.038 39.0509 200.621C39.0509 199.933 39.3246 199.274 39.8118 198.788C40.299 198.302 40.9598 198.029 41.6489 198.029C46.2497 197.87 50.8651 197.754 55.4369 197.262C55.9382 197.262 56.4303 197.397 56.8617 197.651C57.2931 197.906 57.6482 198.272 57.8897 198.71C58.6794 199.988 59.1198 201.451 59.1669 202.952C59.1701 203.421 59.0481 203.883 58.8135 204.29C58.5789 204.697 58.24 205.035 57.8317 205.268C54.9289 206.976 54.1016 203.415 52.9841 201.562L55.4369 203.01C50.8528 203.417 46.2462 203.514 41.6489 203.299L44.2613 200.708C44.2613 203.169 44.6532 205.644 44.6968 208.134C44.7403 210.625 44.6967 213.1 44.7838 215.561C44.1162 214.664 43.4341 213.781 42.7519 212.898C46.7867 213.578 51.315 215.373 55.2337 213.361L54.0581 214.809C55.0345 210.488 55.6702 206.097 55.9594 201.678C56.1771 199.709 59.1814 199.622 59.1089 201.678Z" fill="#FFA9A2"/>
<path d="M148.15 89.1601C150.937 94.5456 152.809 105.317 145.669 108.183C141.735 109.761 137.991 107.546 136.133 104.13C134.914 101.857 133.854 97.195 137.323 96.225C143.927 94.3719 147.091 100.568 147.483 106.258C147.831 112.686 144.827 119.895 139.021 123.109C136.585 124.37 133.804 124.806 131.097 124.354C128.383 123.978 123.84 122.53 122.592 119.794C122.497 119.62 122.449 119.425 122.452 119.228C122.455 119.03 122.508 118.836 122.607 118.665C122.706 118.494 122.847 118.351 123.017 118.249C123.187 118.148 123.381 118.092 123.579 118.086C125.349 117.97 127.207 119.128 128.862 119.664C130.459 120.174 132.135 120.395 133.811 120.315C135.07 120.172 136.289 119.783 137.397 119.169C138.505 118.555 139.482 117.73 140.269 116.739C141.929 114.683 143.076 112.263 143.616 109.678C144.156 107.093 144.073 104.418 143.375 101.871C143.101 100.913 142.569 100.048 141.837 99.3694C141.106 98.6908 140.202 98.2243 139.224 98.0202C136.554 97.4266 136.568 100.047 137.367 101.712C138.143 103.364 139.451 104.709 141.082 105.534C144.972 107.445 147.613 103.782 148.266 100.525C148.887 96.912 148.412 93.1966 146.902 89.855C146.554 89.0587 147.686 88.4072 148.107 89.1601H148.15Z" fill="#FFA9A2"/>
<path d="M76.6133 88.61C76.6133 88.61 62.2447 87.0175 55.8732 100.814H45.7135C45.7135 100.814 52.7527 83.8325 70.8078 85.425L76.6133 88.61Z" fill="#ED9498"/>
<path d="M79.3418 89.6668C79.3418 89.6668 64.9877 88.0743 58.6017 101.871H48.4421C48.4421 101.871 55.3506 84.8893 73.4347 86.4818L79.3418 89.6668Z" fill="#852438"/>
<path d="M120.256 121.444C124.785 127.337 126.512 135.241 126.947 142.509C127.21 146.513 126.902 150.535 126.033 154.453C125.365 157.435 124.074 161.474 120.953 162.705C120.756 162.758 120.549 162.765 120.349 162.726C120.149 162.687 119.96 162.603 119.798 162.48C119.635 162.357 119.503 162.199 119.411 162.017C119.32 161.835 119.271 161.634 119.269 161.431C119.415 158.695 120.91 155.9 121.476 153.208C122.156 149.684 122.434 146.095 122.303 142.509C122.187 136.052 121.505 128.379 117.76 122.892C116.701 121.329 119.211 119.997 120.256 121.444Z" fill="white"/>
<path d="M120.43 175.792L119.98 175.966C119.456 176.114 118.905 176.139 118.37 176.038C117.835 175.937 117.331 175.713 116.897 175.385C116.464 175.056 116.113 174.632 115.872 174.145C115.631 173.658 115.507 173.121 115.51 172.578C115.51 171.645 115.88 170.75 116.54 170.088C116.984 169.651 117.535 169.336 118.139 169.176C118.742 169.016 119.377 169.016 119.98 169.176L120.43 169.35C121.137 169.546 121.759 169.968 122.202 170.551C122.645 171.135 122.884 171.847 122.883 172.578C122.887 173.168 122.731 173.748 122.433 174.258L121.91 174.938C121.505 175.338 121.006 175.631 120.459 175.792H120.43Z" fill="white"/>
</g>
<g filter="url(#filter0_d)">
<circle cx="139.525" cy="35.4751" r="35.4751" fill="white"/>
<path d="M107.871 81.5879L114.618 58.573L131.222 63.5255L107.871 81.5879Z" fill="white" stroke="white"/>
</g>
<g clip-path="url(#clip1)">
<path d="M169.735 42.5708C173.669 25.901 163.345 9.19804 146.675 5.26361C130.005 1.32919 113.302 11.6532 109.368 28.323C105.434 44.9928 115.758 61.6958 132.427 65.6302C149.097 69.5646 165.8 59.2406 169.735 42.5708Z" fill="#FF3C6E"/>
<path d="M157.702 31.1165C157.702 25.0353 153.012 20.6846 148.225 20.6846C146.285 20.6765 144.394 21.2935 142.833 22.4442C141.272 23.5949 140.122 25.2181 139.556 27.0732C138.989 25.2181 137.84 23.5949 136.279 22.4442C134.717 21.2935 132.826 20.6765 130.887 20.6846C126.099 20.6846 121.409 25.0353 121.409 31.1165C121.409 40.3354 135.553 50.8886 139.038 51.9884L139.248 52.0531C139.341 52.0768 139.436 52.0903 139.532 52.0935H139.58C139.678 52.0898 139.776 52.0763 139.871 52.0531L140.073 51.9884C143.567 50.8724 157.702 40.3192 157.702 31.1165Z" fill="#FDFDFD"/>
</g>
<defs>
<filter id="filter0_d" x="100.05" y="0" width="78.9501" height="90.9267" filterUnits="userSpaceOnUse" color-interpolation-filters="sRGB">
<feFlood flood-opacity="0" result="BackgroundImageFix"/>
<feColorMatrix in="SourceAlpha" type="matrix" values="0 0 0 0 0 0 0 0 0 0 0 0 0 0 0 0 0 0 127 0"/>
<feOffset dy="4"/>
<feGaussianBlur stdDeviation="2"/>
<feColorMatrix type="matrix" values="0 0 0 0 0 0 0 0 0 0 0 0 0 0 0 0 0 0 0.25 0"/>
<feBlend mode="normal" in2="BackgroundImageFix" result="effect1_dropShadow"/>
<feBlend mode="normal" in="SourceGraphic" in2="effect1_dropShadow" result="shape"/>
</filter>
<clipPath id="clip0">
<rect width="150.633" height="145.095" fill="white" transform="matrix(-1 0 0 1 150.633 79.7466)"/>
</clipPath>
<clipPath id="clip1">
<rect width="62.0252" height="62.0252" fill="white" transform="translate(108.544 4.43036)"/>
</clipPath>
</defs>
</svg>
