<svg width="56" height="56" viewBox="0 0 56 56" fill="none" xmlns="http://www.w3.org/2000/svg">
    <g clip-path="url(#clip0)">
        <path d="M55.2469 34.4354C58.7991 19.385 49.478 4.30454 34.4275 0.752309C19.3771 -2.79992 4.29661 6.52123 0.74438 21.5717C-2.80785 36.6221 6.5133 51.7026 21.5638 55.2548C36.6142 58.807 51.6947 49.4859 55.2469 34.4354Z" fill="#FF3C6E"/>
        <path d="M44.3839 24.0939C44.3839 18.6034 40.1492 14.6754 35.8269 14.6754C34.0757 14.668 32.3687 15.2251 30.9589 16.264C29.5491 17.3029 28.5116 18.7684 28 20.4433C27.4885 18.7684 26.451 17.3029 25.0412 16.264C23.6314 15.2251 21.9244 14.668 20.1732 14.6754C15.8509 14.6754 11.6162 18.6034 11.6162 24.0939C11.6162 32.4172 24.386 41.9452 27.5328 42.9382L27.7226 42.9966C27.8062 43.018 27.8919 43.0303 27.9781 43.0331H28.0219C28.1106 43.0298 28.1986 43.0176 28.2848 42.9966L28.4673 42.9382C31.6214 41.9306 44.3839 32.4026 44.3839 24.0939Z" fill="#FDFDFD"/>
    </g>
    <defs>
        <clipPath id="clip0">
            <rect width="56" height="56" fill="white"/>
        </clipPath>
    </defs>
</svg>