<svg width="40" height="40" viewBox="0 0 40 40" fill="none" xmlns="http://www.w3.org/2000/svg">
<g clip-path="url(#clip0)">
<path d="M39.4621 24.5968C41.9994 13.8464 35.3414 3.07468 24.5911 0.537372C13.8408 -1.99994 3.06901 4.65803 0.5317 15.4084C-2.00561 26.1587 4.65236 36.9304 15.4027 39.4677C26.153 42.005 36.9248 35.3471 39.4621 24.5968Z" fill="#FF3C6E"/>
<path d="M31.7028 17.21C31.7028 13.2882 28.6781 10.4825 25.5907 10.4825C24.3398 10.4772 23.1206 10.8751 22.1136 11.6172C21.1066 12.3593 20.3655 13.4061 20.0001 14.6024C19.6347 13.4061 18.8936 12.3593 17.8866 11.6172C16.8796 10.8751 15.6604 10.4772 14.4095 10.4825C11.3221 10.4825 8.29736 13.2882 8.29736 17.21C8.29736 23.1552 17.4186 29.961 19.6663 30.6702L19.8019 30.7119C19.8616 30.7272 19.9228 30.736 19.9845 30.738H20.0157C20.079 30.7356 20.1419 30.7269 20.2035 30.7119L20.3339 30.6702C22.5868 29.9505 31.7028 23.1448 31.7028 17.21Z" fill="#FDFDFD"/>
</g>
<defs>
<clipPath id="clip0">
<rect width="40" height="40" fill="white"/>
</clipPath>
</defs>
</svg>
