<svg width="160" height="491" viewBox="0 0 160 491" fill="none" xmlns="http://www.w3.org/2000/svg">
<path opacity="0.2" d="M38.6699 466.389C21.5519 467.167 -5.56439 468.125 1.0061 476.266C7.57658 484.406 17.5331 489.368 33.5665 490.597C52.3393 492.03 70.104 484.938 84.2253 484.791C99.8484 484.619 111.439 491.293 124.684 490.99C140.099 490.638 133.563 482.85 148.699 477.428C163.836 472.007 146.064 457.283 101.656 463.507C83.6899 465.988 69.5269 464.997 38.6699 466.389Z" fill="black"/>
<path d="M104 442C104 442 106 453.038 106 457H118V442H104Z" fill="#2A767B"/>
<path d="M59.5 442.378C59.5 442.378 59.2434 455.612 57.5 457.5L75 461.378L71.5 442.378H59.5Z" fill="#2A767B"/>
<path d="M56.7641 111.826C56.7641 111.826 24.769 183.766 28.7933 188.438C32.8176 193.111 39.8904 192.918 42.3264 189.706C43.6655 187.954 52.7825 165.852 59.3425 149.299C64.8911 135.331 69.7559 122.795 69.7559 122.795C69.7559 122.795 65.3826 111.912 56.7641 111.826Z" fill="#4C4C4C"/>
<path d="M55.0402 259.579C55.0402 259.579 51.3506 358.685 52.2694 362.068C53.1883 365.451 58.4163 449.036 58.4163 449.036H74.0863C74.0863 449.036 69.8126 365.451 70.3967 359.917C70.9808 354.383 76.3869 289.694 76.3869 289.694C76.3869 289.694 91.1451 292.152 98.2678 291.318C99.4858 291.169 102.264 360.565 103.182 364.255C104.101 367.944 102.976 450.867 102.976 450.867H119.266C119.266 450.867 121.929 376.598 122.827 370.758C123.724 364.917 126.025 261.574 126.025 261.574C126.025 261.574 86.843 271.254 55.0402 259.579Z" fill="#4C4C4C"/>
<path d="M63.9438 82.3171C63.9438 82.3171 59.5063 67.8651 58.3097 58.5771C56.8282 47.0811 53.1458 23.3126 65.1404 20.9123C65.1404 20.9123 77.135 36.9811 77.135 38.4199C77.135 39.8587 62.2628 82.0749 62.2628 82.0749" fill="#4C4C4C"/>
<path d="M58.9506 253.062C68.2102 255.911 80.4042 259.081 89.5782 259.231C103.04 259.451 121.246 255.726 128.112 254.202C129.511 256.92 130.214 259.942 130.156 262.998C130.156 263.077 130.156 263.148 130.156 263.226C125.049 265.883 112.057 270.107 88.1323 269.131C73.1747 268.526 63.6516 266.282 57.2839 264.102C52.7468 262.521 54.0645 251.545 58.9506 253.062Z" fill="#7A6356"/>
<path d="M120.477 256.796L125.023 256.244L126.502 268.427L121.956 268.979L120.477 256.796Z" fill="#4C4C4C"/>
<path d="M104.986 259.328L109.563 259.159L110.015 271.423L105.438 271.592L104.986 259.328Z" fill="#4C4C4C"/>
<path d="M61.2399 257.091L65.785 257.654L64.2745 269.833L59.7294 269.27L61.2399 257.091Z" fill="#4C4C4C"/>
<path d="M71.3286 258.607L91.9417 259.691L91.2677 272.508L70.6546 271.424L71.3286 258.607Z" fill="#57453F"/>
<path d="M53.0816 250.555C53.0816 250.555 58.1458 261.602 92.3348 262.158C126.524 262.713 129.074 256.175 129.074 256.175C129.074 256.175 121.994 237.471 125.854 192.747C131.075 132.204 131.652 125.894 119.672 103.094L84.5212 127.04L60.19 108.813C60.19 108.813 60.0049 106.442 57.7826 134.37C56.4435 151.115 54.8338 186.365 56.1729 216.01C57.1059 235.797 53.0816 250.555 53.0816 250.555Z" fill="white"/>
<path d="M95.1838 121.684C94.7208 121.499 91.886 135.687 92.5484 140.303C93.2108 144.918 96.993 206.209 96.993 215.269C96.993 224.329 98.5599 275.812 98.5599 275.812L104.443 272.614C104.443 272.614 111.566 216.259 110.049 211.978C108.532 207.698 97.691 122.674 95.1838 121.684Z" fill="url(#paint0_linear)"/>
<path d="M61.8139 74.19C55.4676 68.9264 53.0245 57.5301 60.1116 55.4289C67.1987 53.3277 68.1175 69.3893 68.1175 69.3893C68.1175 69.3893 72.5264 83.0863 61.8139 74.19Z" fill="#FFC59F"/>
<path d="M61.1516 109.355C65.0904 117.019 84.7704 127.041 84.7704 127.041C84.7704 127.041 119.971 111.114 119.166 104.412C116.552 82.5379 120.227 77.3455 122.998 59.496C125.769 41.6465 123.575 36.4683 123.575 36.4683C124.679 19.5163 107.641 3.70392 88.9514 6.72395C70.4324 8.63995 59.4136 21.6318 59.4421 40.9129C59.4421 53.5984 60.2256 76.448 61.0447 100.829C61.1373 103.493 61.1516 109.355 61.1516 109.355Z" fill="#FFD0A4"/>
<path d="M93.2962 42.6079C95.2712 41.6391 97.3991 41.0197 99.5855 40.7774C103.453 40.293 108.005 42.1449 108.005 42.1449C108.005 42.1449 113.753 44.588 112.99 45.2362C112.606 45.5496 105.155 44.8017 102.684 44.6592C100.212 44.5168 93.98 44.9441 93.4244 44.7874C93.1894 44.7268 92.9796 44.5931 92.8254 44.4057C92.6711 44.2183 92.5804 43.9867 92.5661 43.7444C92.5519 43.5021 92.6149 43.2615 92.7461 43.0572C92.8773 42.853 93.0699 42.6957 93.2962 42.6079Z" fill="#4C4C4C"/>
<path d="M77.0351 42.2661C75.7388 41.5539 73.2744 41.3972 71.1233 41.3331C67.8184 41.2334 63.2883 44.2747 63.2883 44.2747C63.2883 44.2747 59.8908 47.1238 60.6743 47.7862C61.0447 48.0854 67.6403 45.336 69.6845 44.8944C71.7287 44.4528 76.971 44.8944 77.4055 44.6665C77.5914 44.5089 77.7337 44.3063 77.8189 44.0781C77.9041 43.8498 77.9294 43.6035 77.8922 43.3626C77.8551 43.1218 77.7567 42.8946 77.6067 42.7026C77.4566 42.5106 77.2599 42.3604 77.0351 42.2661Z" fill="#4C4C4C"/>
<path d="M73.2033 4.52298L73.6093 4.466L73.2033 4.52298Z" fill="#808080"/>
<g style="mix-blend-mode:overlay" opacity="0.5">
<path style="mix-blend-mode:overlay" opacity="0.5" d="M88.9514 6.72374C107.641 3.69659 124.679 19.5446 123.575 36.4752C123.575 36.4752 125.455 40.8984 123.532 55.7493C119.337 56.547 117.164 66.4333 117.164 66.4333C117.164 66.4333 117.264 50.1437 115.961 44.6022C112.399 29.787 92.0569 23.0988 88.3887 27.1659C88.3887 27.1659 80.7888 28.0847 75.4112 26.9023C72.7118 26.342 69.9687 26.0178 67.213 25.9336C67.213 25.9336 62.1772 26.6459 59.6202 36.7388C61.0946 19.7725 71.8071 8.49729 88.9514 6.72374Z" fill="url(#paint1_linear)"/>
</g>
<path d="M64.1719 56.6855C64.0803 53.0676 67.2387 50.0529 71.2262 49.952C75.2138 49.851 78.5206 52.7021 78.6121 56.32C78.7037 59.9379 75.5454 62.9526 71.5579 63.0535C67.5703 63.1545 64.2635 60.3034 64.1719 56.6855Z" fill="#57453F"/>
<path d="M64.8304 57.0148C64.742 53.5227 67.7913 50.6129 71.6413 50.5154C75.4912 50.418 78.6838 53.1698 78.7722 56.6619C78.8606 60.1539 75.8113 63.0638 71.9614 63.1613C68.1114 63.2587 64.9188 60.5069 64.8304 57.0148Z" fill="white"/>
<path d="M79.9271 61.7537L80.3118 67.1171L64.6418 68.2568C64.6418 68.2568 64.5777 63.6413 64.2857 63.3848C63.9937 63.1284 66.0735 60.899 72.0067 60.4717C77.9399 60.0443 79.9271 61.7537 79.9271 61.7537Z" fill="#FFD0A4"/>
<path opacity="0.05" d="M78.0893 62.9005C78.0893 62.9005 73.3456 61.3763 70.1617 62.4732C66.9779 63.57 63.3239 64.7667 66.8497 64.5174C70.3754 64.2681 78.5594 64.0615 78.0893 62.9005Z" fill="#1C1C1B"/>
<path d="M100.878 63.4574C96.8891 63.2979 93.7737 60.2124 93.9196 56.5658C94.0655 52.9192 97.4173 50.0924 101.406 50.2519C105.395 50.4115 108.51 53.497 108.364 57.1436C108.219 60.7902 104.867 63.617 100.878 63.4574Z" fill="#57453F"/>
<path d="M100.61 63.5995C96.7621 63.451 93.7525 60.4786 93.8883 56.9605C94.024 53.4424 97.2537 50.7108 101.102 50.8593C104.95 51.0078 107.96 53.9802 107.824 57.4983C107.688 61.0164 104.459 63.748 100.61 63.5995Z" fill="white"/>
<path d="M92.6625 62.0245L92.1995 67.3808L107.869 68.727C107.869 68.727 107.991 64.1115 108.29 63.8622C108.589 63.6129 106.538 61.355 100.611 60.8422C94.6853 60.3293 92.6625 62.0245 92.6625 62.0245Z" fill="#FFD0A4"/>
<path opacity="0.05" d="M94.4716 63.1925C94.4716 63.1925 99.2367 61.768 102.406 62.872C105.576 63.976 109.208 65.251 105.697 64.959C102.185 64.6669 93.9944 64.3535 94.4716 63.1925Z" fill="#1C1C1B"/>
<path d="M73.2531 58.399C71.8842 58.399 70.7744 57.2893 70.7744 55.9203C70.7744 54.5514 71.8842 53.4416 73.2531 53.4416C74.6221 53.4416 75.7318 54.5514 75.7318 55.9203C75.7318 57.2893 74.6221 58.399 73.2531 58.399Z" fill="#57453F"/>
<path d="M75.7671 56.8623C74.584 56.8166 73.6463 56.222 73.6729 55.5341C73.6994 54.8462 74.6801 54.3256 75.8633 54.3712C77.0465 54.4169 77.9841 55.0115 77.9575 55.6994C77.931 56.3873 76.9503 56.908 75.7671 56.8623Z" fill="white"/>
<path d="M68.9011 78.5775C69.0327 78.7479 69.2146 78.8725 69.421 78.9337C69.6109 79.0117 69.8061 79.076 70.0051 79.126C70.404 79.2328 70.81 79.304 71.2088 79.3753C72.0208 79.4963 72.8328 79.5747 73.6519 79.6317C75.283 79.7456 76.9141 79.7884 78.5452 79.7955C81.8192 79.8353 85.0888 79.5418 88.3033 78.9194C91.5179 78.3214 94.6933 77.5294 97.8121 76.5476C99.372 76.0561 100.918 75.5219 102.442 74.9165C103.197 74.6102 103.952 74.2897 104.693 73.9335C105.453 73.6251 106.155 73.1917 106.772 72.6514V72.6016C106.772 72.6016 106.772 72.6016 106.73 72.6016C105.339 73.4393 103.878 74.1543 102.364 74.7384C100.854 75.3438 99.3079 75.8851 97.7551 76.3837C94.6458 77.3724 91.48 78.1739 88.2748 78.7841C85.0714 79.4197 81.8109 79.7228 78.5452 79.6887C76.9141 79.6887 75.283 79.6887 73.6519 79.5533C72.8399 79.4963 72.028 79.4251 71.2231 79.304C70.8201 79.2453 70.4206 79.1644 70.0265 79.0619C69.6347 78.9974 69.2678 78.8275 68.9652 78.5704H68.9153L68.9011 78.5775Z" fill="#7C4B28"/>
<path opacity="0.05" d="M71.5294 79.3823C75.6891 79.3823 79.9983 77.8866 82.071 78.2854C85.8247 78.9977 87.3988 76.8609 90.1553 77.1102C92.1995 77.2811 105.355 73.4847 105.355 73.4847C105.355 73.4847 95.6896 79.5248 86.017 80.6074C75.8102 81.6901 71.5294 79.3823 71.5294 79.3823Z" fill="#FF0000"/>
<g style="mix-blend-mode:overlay" opacity="0.5">
<path style="mix-blend-mode:overlay" opacity="0.5" d="M61.1515 109.355C65.0904 117.019 84.7704 127.041 84.7704 127.041C84.7704 127.041 119.971 111.114 119.166 104.412C117.642 91.6407 118.261 84.5608 119.586 77.3455C117.058 79.6247 114.387 83.179 113.29 86.6905C112.093 90.5296 92.8831 109.789 89.1651 111.826C85.447 113.864 85.561 118.664 84.3644 118.785C83.1678 118.906 82.8045 116.264 80.1691 112.909C77.8471 109.953 64.2428 100.715 60.9378 98.5141C60.9378 99.2976 60.9948 100.081 61.0162 100.872C61.1373 103.493 61.1515 109.355 61.1515 109.355Z" fill="url(#paint2_linear)"/>
</g>
<path d="M103.168 117.026L93.9087 123.821C93.9087 123.821 104.778 215.269 98.5954 275.826H131.716L128.867 180.838L132.863 129.234C133.646 120.196 116.958 103.379 115.896 103.279C111.943 103.065 103.168 117.026 103.168 117.026Z" fill="#4C4C4C"/>
<g opacity="0.3">
<path opacity="0.3" d="M120.17 276.417C124.096 276.251 128.008 275.854 131.887 275.228L128.831 180.838L131.581 145.303C128.518 142.155 125.534 139.142 125.534 139.142L121.58 134.199C121.58 134.199 122.57 152.49 124.714 159.904C126.858 167.319 123.397 179.848 119.273 181.159C115.149 182.469 110.54 181.814 114.493 183.466C118.446 185.119 126.032 216.416 126.032 222.841C126.032 229.265 128.169 254.643 124.551 259.095C121.637 262.656 105.526 266.346 99.3149 267.642C99.1582 269.779 98.7949 273.746 98.6026 275.805C98.5955 275.826 111.046 276.588 120.17 276.417Z" fill="url(#paint3_linear)"/>
</g>
<path d="M71.9069 121.086C71.9069 121.086 76.85 129.241 76.6007 135.915C76.3514 142.589 75.6107 219.208 74.8699 222.42C74.1292 225.633 63.4736 284.95 63.4736 284.95L60.012 274.323C60.012 274.323 65.2044 244.408 66.1874 225.889C67.1703 207.37 71.9069 121.086 71.9069 121.086Z" fill="url(#paint4_linear)"/>
<path d="M119.707 103.094C109.999 133.194 136.624 161.999 147.97 203.773C152.244 213.852 160.47 207.156 159.979 203.873C157.621 188.096 140.904 120.181 119.707 103.094Z" fill="#4C4C4C"/>
<path d="M148.098 202.049C141.809 221.48 130.384 265.441 130.384 265.441L140.242 271.375C140.242 271.375 156.873 214.664 159.63 205.418C161.275 196.13 150.947 193.31 148.098 202.049Z" fill="#4C4C4C"/>
<path d="M140.769 277.785C141.073 275.214 140.904 272.61 140.271 270.1C137.592 258.767 123.418 260.334 125.441 282.301L125.327 282.401C125.455 286.674 130.035 302.394 131.453 302.287C131.717 302.273 131.975 302.202 132.209 302.079C132.443 301.957 132.649 301.785 132.811 301.577C132.974 301.368 133.09 301.128 133.152 300.87C133.214 300.613 133.22 300.346 133.169 300.086C134.401 303.989 135.691 307.209 136.332 307.145C137.756 307.031 138.647 305.72 137.614 303.256C137.108 302.059 136.382 297.608 135.776 293.206C137.678 298.904 140.37 305.421 141.211 305.272C142.486 305.037 143.177 303.633 142.016 301.29C141.375 300.008 140.121 294.709 139.095 289.929C140.947 295.385 143.212 300.92 144.031 300.777C145.456 300.535 146.204 299.125 144.943 296.781C143.903 294.794 141.553 282.358 140.769 277.785Z" fill="#FFD0A4"/>
<path d="M84.5568 127.04C84.5568 127.04 98.8449 122.674 99.5145 122.176C100.184 121.677 112.848 108.977 112.848 108.977C112.848 108.977 101.153 110.459 100.027 110.95C98.9019 111.442 89.3432 115.224 89.3432 115.224L84.5568 127.04Z" fill="#808080"/>
<path d="M65.9809 115.174L74.7062 121.086C74.7062 121.086 71.4084 223.653 71.907 224.892C72.4055 226.131 63.5022 284.951 63.5022 284.951L49.9049 280.499L52.754 217.37C52.754 217.37 51.6215 159.05 51.6215 138.387C51.6215 117.724 57.7185 108.222 60.995 107.268L65.9809 115.174Z" fill="#4C4C4C"/>
<path d="M68.5236 112.289C68.5236 112.289 77.0708 114.597 77.5908 115.138C78.1107 115.68 81.0453 125.274 81.0453 125.274L74.5423 121.713L68.5236 112.289Z" fill="#808080"/>
<path d="M61.059 28.8469C61.059 28.8469 54.0289 8.07714 70.4895 5.75514C75.6107 5.04287 93.9944 0 93.9944 0L92.3918 2.55705H122.307L118.468 5.40613C118.468 5.40613 130.577 13.9534 130.235 24.438C130.049 29.6732 120.113 60.4717 120.113 60.4717L117.015 44.0895C115.844 37.7631 112.236 32.1494 106.967 28.4567C101.699 24.764 95.1909 23.2876 88.8447 24.3454C88.2098 24.4495 87.5818 24.5923 86.9643 24.7727C84.8844 25.4138 70.5821 25.6488 70.6533 23.1701C70.6889 22.0091 62.975 25.1716 61.059 28.8469Z" fill="#4C4C4C"/>
<path d="M119.985 32.166C120.348 32.7643 120.113 60.4716 120.113 60.4716L118.19 83.9765C118.19 83.9765 128.019 70.0659 129.102 59.3961C130.185 48.7263 131.738 22.7926 127.421 19.2312C123.105 15.6699 119.985 32.166 119.985 32.166Z" fill="#4C4C4C"/>
<path d="M118.489 40.5994C118.489 41.0196 117.164 66.4476 117.164 66.4476C118.778 64.8343 119.815 62.7338 120.113 60.4717C120.378 58.3109 120.877 56.1853 121.602 54.1325L118.489 40.5994Z" fill="#4C4C4C"/>
<path d="M101.936 58.7836C100.567 58.7836 99.4574 57.6739 99.4574 56.3049C99.4574 54.936 100.567 53.8262 101.936 53.8262C103.305 53.8262 104.415 54.936 104.415 56.3049C104.415 57.6739 103.305 58.7836 101.936 58.7836Z" fill="#57453F"/>
<path opacity="0.05" d="M80.7818 84.9595C81.1451 84.9595 94.3933 83.6418 92.1781 84.6034C89.963 85.5649 86.3589 87.2388 84.2577 86.8755C82.9302 86.608 81.7168 85.9392 80.7818 84.9595Z" fill="#1C1C1B"/>
<path opacity="0.1" d="M83.873 126.243C83.2512 126.365 82.6906 126.699 82.2858 127.187C81.8811 127.674 81.6568 128.287 81.6508 128.921C81.5012 140.581 80.0767 195.361 80.0767 202.178C80.0767 209.842 82.6693 256.681 86.6224 256.681C90.5755 256.681 90.2692 208.431 89.4715 202.178C88.2393 192.541 87.3845 142.867 87.4771 128.921C87.479 128.513 87.3907 128.111 87.2186 127.741C87.0466 127.372 86.795 127.045 86.4819 126.785C86.1688 126.524 85.8019 126.336 85.4075 126.233C85.0131 126.131 84.601 126.117 84.2007 126.193L83.873 126.243Z" fill="black"/>
<path d="M82.363 126.243C81.7438 126.368 81.1865 126.703 80.7845 127.19C80.3826 127.678 80.1603 128.289 80.155 128.921C80.0054 140.581 78.5737 195.361 78.5737 202.178C78.5737 209.842 81.1735 256.681 85.1266 256.681C89.0797 256.681 88.7734 208.431 87.9757 202.178C86.7435 192.541 85.8816 142.867 85.9813 128.921C85.9834 128.513 85.895 128.109 85.7225 127.739C85.55 127.369 85.2978 127.042 84.9838 126.781C84.6699 126.52 84.3021 126.332 83.9068 126.231C83.5115 126.129 83.0986 126.116 82.6978 126.193L82.363 126.243Z" fill="#0071BC"/>
<path d="M84.8346 127.04C85.148 126.563 88.631 116.143 88.7948 116.613C90.027 120.174 90.5612 130.374 90.5612 130.374C91.6724 129.583 121.766 105.274 121.766 105.274L119.088 96.534C119.088 96.534 89.4073 113.529 87.9543 115.544C86.5298 118.636 84.8346 127.04 84.8346 127.04Z" fill="white"/>
<path d="M81.0453 125.31C80.7176 124.156 80.1407 115.915 77.4839 114.106C74.8272 112.296 59.7698 101.007 59.7698 101.007L60.2043 108.842C60.2043 108.842 66.4865 118.814 74.4497 128.921C75.4041 121.898 77.5124 114.839 77.5409 115.943L81.0453 125.31Z" fill="white"/>
<path d="M77.4198 124.191C77.6164 123.521 78.0608 122.95 78.6627 122.596C79.2647 122.241 79.979 122.129 80.6606 122.282C82.3943 122.653 84.1818 122.696 85.9314 122.411C86.6393 122.305 87.3605 122.479 87.9417 122.897C88.5229 123.315 88.9184 123.943 89.044 124.647L89.1509 125.295C89.26 125.921 89.1494 126.564 88.8378 127.118C88.5262 127.671 88.0329 128.099 87.4414 128.33L84.4428 129.505C84.0529 129.656 83.6339 129.717 83.217 129.684C82.8002 129.651 82.3962 129.524 82.0353 129.312L78.6591 127.325C78.1341 127.014 77.7274 126.538 77.503 125.97C77.2786 125.403 77.2493 124.777 77.4198 124.191Z" fill="#0071BC"/>
<path opacity="0.2" d="M93.3035 16.9448C93.3035 16.9448 109.821 21.368 112.991 27.6218C112.991 27.6218 110.74 18.1201 93.3035 16.9448Z" fill="black"/>
<path opacity="0.2" d="M103.532 16.026C103.268 15.9477 115.063 22.1159 115.327 29.1959C115.327 29.203 117.157 20.0219 103.532 16.026Z" fill="black"/>
<path opacity="0.2" d="M71.2444 18.519C71.0948 19.0889 77.4056 8.82505 86.5796 7.90622C86.5796 7.92047 74.528 6.34635 71.2444 18.519Z" fill="black"/>
<g opacity="0.37">
<path opacity="0.37" d="M129.102 59.3961C129.515 55.272 130.007 48.8759 130.199 42.3657C127.478 46.5681 123.789 53.356 122.799 57.1809C121.941 60.077 120.899 62.9153 119.679 65.6783L118.183 83.9836C118.183 83.9836 128.02 70.0659 129.102 59.3961Z" fill="url(#paint5_linear)"/>
</g>
<path d="M124.665 74.19C131.011 68.9264 133.461 57.5301 126.374 55.4289C119.287 53.3277 118.333 69.3893 118.333 69.3893C118.333 69.3893 113.952 83.0863 124.665 74.19Z" fill="#FFD0A4"/>
<path opacity="0.05" d="M120.754 66.8039C120.754 66.8039 121.417 65.3793 122.592 65.5146C123.767 65.65 125.327 66.2269 127.044 62.573C127.027 62.2049 126.922 61.8463 126.738 61.5275C126.553 61.2088 126.294 60.9395 125.982 60.7424C124.964 60.2154 124.038 60.137 123.133 61.4547C122.229 62.7724 120.462 65.0588 120.754 66.8039Z" fill="#1C1C1B"/>
<path d="M76.323 119.697C76.4298 119.369 78.3886 122.895 79.8131 123.515C81.2376 124.134 78.823 125.552 78.823 125.552L75.397 123.935C75.5739 122.497 75.8839 121.078 76.323 119.697Z" fill="#0071BC"/>
<path d="M89.7706 121.542C89.0654 121.954 88.4002 122.431 87.7833 122.966C87.7833 123.151 90.0982 124.782 90.0982 124.562C90.1124 123.835 89.7706 121.542 89.7706 121.542Z" fill="#0071BC"/>
<path d="M51.1443 240.975C51.764 240.975 57.9394 241.595 59.1787 241.225C59.0922 242.797 58.9258 244.363 58.6801 245.918C58.4308 246.787 51.2654 246.787 51.2654 246.787L51.1443 240.975Z" fill="#212121"/>
<path d="M111.075 240.355C111.694 240.355 129.366 238.012 130.605 237.642C130.605 237.642 131.096 241.096 130.847 241.965C130.598 242.834 117.378 244.814 114.045 245.056L110.704 245.299L111.075 240.355Z" fill="#212121"/>
<path d="M105.084 254.401C104.188 254.401 103.46 253.674 103.46 252.777C103.46 251.88 104.188 251.153 105.084 251.153C105.981 251.153 106.708 251.88 106.708 252.777C106.708 253.674 105.981 254.401 105.084 254.401Z" fill="#212121"/>
<path d="M104.885 239.957C103.988 239.957 103.261 239.229 103.261 238.333C103.261 237.436 103.988 236.709 104.885 236.709C105.782 236.709 106.509 237.436 106.509 238.333C106.509 239.229 105.782 239.957 104.885 239.957Z" fill="#212121"/>
<path d="M104.443 224.144C103.546 224.144 102.819 223.417 102.819 222.52C102.819 221.623 103.546 220.896 104.443 220.896C105.34 220.896 106.067 221.623 106.067 222.52C106.067 223.417 105.34 224.144 104.443 224.144Z" fill="#212121"/>
<path d="M104.495 57.3574C103.312 57.3117 102.375 56.717 102.401 56.0292C102.428 55.3413 103.408 54.8206 104.591 54.8663C105.775 54.9119 106.712 55.5066 106.686 56.1945C106.659 56.8824 105.679 57.403 104.495 57.3574Z" fill="white"/>
<path opacity="0.05" d="M104.443 71.2767C104.443 71.2767 105.946 72.4305 106.83 72.4661C107.713 72.5018 106.758 75.5289 107.271 75.358C107.784 75.187 108.532 72.3664 107.983 71.5473C107.435 70.7282 104.657 70.4219 104.443 71.2767Z" fill="#1C1C1B"/>
<path opacity="0.05" d="M68.9864 81.4338C68.9864 81.4338 69.1289 79.5463 68.673 78.7841C68.2172 78.022 71.2728 77.1673 70.8526 76.8325C70.4323 76.4977 67.6545 77.4166 67.2912 78.3496C66.928 79.2827 68.1602 81.7258 68.9864 81.4338Z" fill="#1C1C1B"/>
<path opacity="0.2" d="M75.9527 18.9107C75.5609 19.4449 75.7034 10.9974 87.8191 9.02442L115.035 4.57274C115.035 4.57274 117.172 5.0642 113.546 6.17535C109.921 7.28649 116.766 9.73669 118.739 14.9505C120.712 20.1643 115.177 7.90616 102.919 9.3948C90.661 10.8834 83.2748 9.02442 75.9527 18.9107Z" fill="black"/>
<path d="M108.304 367.09C108.104 364.832 108.304 367.09 107.898 366.47C107.492 365.85 103.183 289.231 104.002 287.593C104.821 285.955 99.0872 287.187 99.0872 287.187C87.6125 288.206 72.6548 284.723 72.6548 284.723C72.6548 284.723 65.8954 360.124 64.6703 360.736C63.4452 361.349 65.8954 362.581 65.8954 362.581L70.169 449.036H74.0651C74.0651 449.036 69.7915 365.451 70.3756 359.917C70.9596 354.383 76.3658 289.694 76.3658 289.694C76.3658 289.694 91.1454 292.152 98.2681 291.318C99.486 291.169 102.264 360.565 103.183 364.255C104.102 367.944 102.976 450.867 102.976 450.867H106.538C106.808 438.637 108.496 369.141 108.304 367.09Z" fill="url(#paint6_linear)"/>
<path opacity="0.3" d="M52.1413 182.042L57.9748 145.146L52.1413 167.277V182.042Z" fill="url(#paint7_linear)"/>
<path opacity="0.3" d="M37.3759 159.021L39.5768 182.64L34.1707 167.433L37.3759 159.021Z" fill="url(#paint8_linear)"/>
<path d="M10.0675 140.851C13.5078 149.491 25.9796 191.615 31.4356 192.662C36.8916 193.709 41.7635 190.397 41.5712 187.327C41.3789 184.257 26.9269 145.702 24.377 135.737C23.1662 130.958 6.63439 132.219 10.0675 140.851Z" fill="#4C4C4C"/>
<path d="M17.169 133.778C17.169 133.778 20.8015 129.127 21.5423 118.821C22.2831 108.514 20.9369 102.958 14.6048 96.1777C6.84817 87.8726 2.93781 98.4569 2.4962 100.957C2.4962 100.957 -0.887081 103.407 0.22406 109.761C1.39931 116.492 6.63449 125.815 9.12031 133.066C11.6061 140.317 13.2728 137.618 17.169 133.778Z" fill="#FFDBBB"/>
<path d="M19.2915 126.421C20.2602 127.703 20.9938 123.237 24.9897 118.771C28.9855 114.305 33.7933 108.699 28.665 109.362C23.5367 110.024 18.5152 115.986 18.5152 115.986C18.5152 115.986 15.8299 121.834 19.2915 126.421Z" fill="#FFDBBB"/>
<path d="M10.4949 140.068C10.4949 140.068 9.12018 136.82 9.12018 135.459C9.12018 134.099 20.5165 128.878 20.5165 128.878L22.81 134.726C22.81 134.726 21.7202 139.484 10.502 140.068" fill="white"/>
<path d="M101.363 466.249C100.599 467.397 99.2564 470.075 99.2564 472.562C99.2564 475.049 98.8678 478.303 99.0587 479.071C99.2496 479.839 104.629 481.558 110.58 481.558C116.532 481.558 127.092 479.642 128.817 477.733C130.542 475.823 128.244 469.388 128.626 467.588C129.008 465.787 121.522 460.317 120.37 459.359C119.218 458.401 119.184 452 119.184 452L104.315 453.475L105.099 460.582L101.363 466.249Z" fill="#4D4D4D"/>
<path d="M99.0586 479.071C99.2563 479.839 104.628 481.558 110.58 481.558C116.532 481.558 127.092 479.642 128.817 477.733C129.43 477.053 129.533 475.803 129.43 474.403C128.23 476.72 123.111 477.862 122.749 477.916C122.388 477.97 120.99 471.61 119.62 470.571C118.25 469.531 111.991 470.054 109.776 471.25C107.56 472.446 107.88 478.922 107.621 479.119C107.362 479.316 106.449 479.445 104.492 479.377C103.238 479.336 100.702 478.174 99.0381 477.339C98.9813 477.915 98.9881 478.496 99.0586 479.071Z" fill="white"/>
<path d="M106.319 468.587C106.217 469.45 108.078 468.009 113.587 467.615C119.095 467.221 119.975 468.39 120.895 467.683C121.959 466.854 118.577 466.106 113.294 466.467C109.34 466.725 106.435 467.262 106.319 468.587Z" fill="white"/>
<path d="M107.212 465.42C107.131 466.174 108.753 464.917 113.573 464.571C118.393 464.224 119.15 465.25 119.954 464.625C120.881 463.905 117.909 463.266 113.314 463.565C109.885 463.789 107.349 464.292 107.212 465.42Z" fill="white"/>
<path d="M108.507 463.171C108.439 463.776 109.755 462.763 113.655 462.492C117.554 462.22 118.175 463.042 118.822 462.539C119.579 461.955 117.186 461.432 113.443 461.676C110.669 461.853 108.617 462.254 108.507 463.171Z" fill="white"/>
<path d="M109.428 460.895C109.373 461.384 110.416 460.575 113.518 460.351C116.62 460.127 117.09 460.786 117.609 460.392C118.127 459.998 116.313 459.515 113.361 459.712C111.139 459.869 109.509 460.168 109.428 460.895Z" fill="white"/>
<path d="M108.91 458.788C108.849 459.271 109.892 458.469 113.001 458.245C116.109 458.02 116.573 458.68 117.091 458.245C117.609 457.81 115.796 457.368 112.837 457.565C110.614 457.749 108.992 458.048 108.91 458.788Z" fill="white"/>
<path d="M54.5979 450C54.9865 450.034 69.9576 449.81 69.8894 452.759C69.8212 455.708 69.7258 458.99 70.0189 459.017C70.3121 459.044 77.3954 459.017 77.3954 459.017C77.3954 459.017 79.0929 467.789 78.9361 469.529L78.8271 472.247C78.8271 472.247 70.5234 475.644 68.7577 476.276C66.992 476.908 39.8858 480.217 29.2165 481.033C18.5472 481.848 11.0276 479.905 11.0276 479.905C11.0276 479.905 12.1525 471.792 15.4589 469.95C18.7654 468.109 32.373 467.551 32.373 467.551L50.3029 460.614L54.5979 450Z" fill="#4D4D4D"/>
<path d="M11 479.952C11 479.952 18.4992 481.936 29.1889 481.08C39.8787 480.224 66.9985 476.895 68.7301 476.324C70.4618 475.753 78.7995 472.294 78.7995 472.294L78.9154 469.576C78.9154 469.44 78.9154 469.264 78.9154 469.046C75.8816 470.541 69.4869 473.681 68.0075 474.367C66.0509 475.277 34.4793 478.784 29.9184 479.049C25.3575 479.314 23.2646 478.654 23.2646 478.654C23.3919 477.171 23.7531 475.717 24.3349 474.346C25.2485 472.267 28.9026 470.704 28.9026 470.704C30.1979 469.237 30.1366 468.319 29.2435 467.776C25.0167 468.068 17.7356 468.747 15.4313 470.025C12.1249 471.839 11 479.952 11 479.952Z" fill="white"/>
<path d="M71.4229 470.052C73.6406 470.052 75.4384 467.907 75.4384 465.262C75.4384 462.616 73.6406 460.471 71.4229 460.471C69.2053 460.471 67.4075 462.616 67.4075 465.262C67.4075 467.907 69.2053 470.052 71.4229 470.052Z" fill="white"/>
<path d="M32.4204 467.361C32.4204 467.361 37.0017 466.648 39.047 468.306C41.0922 469.964 40.9695 468.21 39.3401 467.198C38.0222 466.397 36.4496 466.12 34.9361 466.423C34.0253 466.492 33.1529 466.817 32.4204 467.361Z" fill="white"/>
<path d="M37.0017 465.676C37.0017 465.676 41.5967 464.956 43.5874 466.614C45.5781 468.272 45.5099 466.519 43.8805 465.513C42.5657 464.703 40.9908 464.424 39.4764 464.731C38.4675 464.895 37.3767 465.248 37.0017 465.676Z" fill="white"/>
<path d="M41.8149 463.726C41.8149 463.726 46.4099 463.006 48.4006 464.663C50.3913 466.321 50.3231 464.568 48.6937 463.563C47.3771 462.758 45.8023 462.484 44.2897 462.795C43.2602 462.944 42.1763 463.298 41.8149 463.726Z" fill="white"/>
<path d="M47.3918 461.708C47.3918 461.708 51.9868 461.028 53.9775 462.652C55.9682 464.276 55.9 462.55 54.2707 461.545C52.9545 460.739 51.3818 460.457 49.8666 460.756C48.9691 460.838 48.1122 461.168 47.3918 461.708Z" fill="white"/>
<path d="M50.3301 459.527C50.3301 459.527 54.6932 457.916 56.9703 459.139C59.2473 460.362 58.8382 458.664 57.0384 457.998C55.5862 457.474 53.9892 457.515 52.5662 458.113C51.7031 458.367 50.9285 458.857 50.3301 459.527Z" fill="white"/>
<defs>
<linearGradient id="paint0_linear" x1="92.4843" y1="198.752" x2="110.248" y2="198.752" gradientUnits="userSpaceOnUse">
<stop stop-opacity="0"/>
<stop offset="1"/>
</linearGradient>
<linearGradient id="paint1_linear" x1="-219498" y1="3075.41" x2="-225390" y2="3075.41" gradientUnits="userSpaceOnUse">
<stop stop-opacity="0"/>
<stop offset="1"/>
</linearGradient>
<linearGradient id="paint2_linear" x1="16951.6" y1="6881.59" x2="16515.4" y2="8235.31" gradientUnits="userSpaceOnUse">
<stop stop-opacity="0"/>
<stop offset="1"/>
</linearGradient>
<linearGradient id="paint3_linear" x1="9374.62" y1="41138.8" x2="7818.91" y2="41138.8" gradientUnits="userSpaceOnUse">
<stop stop-opacity="0"/>
<stop offset="1"/>
</linearGradient>
<linearGradient id="paint4_linear" x1="49.392" y1="205.084" x2="82.5126" y2="201.38" gradientUnits="userSpaceOnUse">
<stop/>
<stop offset="1" stop-opacity="0"/>
</linearGradient>
<linearGradient id="paint5_linear" x1="2818.9" y1="2994.32" x2="3252.37" y2="3117.83" gradientUnits="userSpaceOnUse">
<stop stop-opacity="0"/>
<stop offset="1"/>
</linearGradient>
<linearGradient id="paint6_linear" x1="14441.3" y1="86078.2" x2="11723.9" y2="86078.2" gradientUnits="userSpaceOnUse">
<stop stop-opacity="0"/>
<stop offset="1" stop-color="#312C2C"/>
</linearGradient>
<linearGradient id="paint7_linear" x1="-777.613" y1="8619.32" x2="-825.389" y2="8619.32" gradientUnits="userSpaceOnUse">
<stop stop-opacity="0"/>
<stop offset="1"/>
</linearGradient>
<linearGradient id="paint8_linear" x1="-874.437" y1="5823.77" x2="-915.469" y2="5823.77" gradientUnits="userSpaceOnUse">
<stop stop-opacity="0"/>
<stop offset="1"/>
</linearGradient>
</defs>
</svg>
