<svg width="50" height="50" viewBox="0 0 50 50" fill="none" xmlns="http://www.w3.org/2000/svg">
<g style="mix-blend-mode:multiply" opacity="0.5">
<g style="mix-blend-mode:multiply" opacity="0.5">
<path d="M25.8031 50C39.1665 50 49.9998 39.2816 49.9998 26.0598C49.9998 12.838 39.1665 2.11957 25.8031 2.11957C12.4397 2.11957 1.60645 12.838 1.60645 26.0598C1.60645 39.2816 12.4397 50 25.8031 50Z" fill="black"/>
</g>
</g>
<path d="M24.1967 47.8805C37.5601 47.8805 48.3933 37.1621 48.3933 23.9402C48.3933 10.7184 37.5601 0 24.1967 0C10.8332 0 0 10.7184 0 23.9402C0 37.1621 10.8332 47.8805 24.1967 47.8805Z" fill="#0B7AC7"/>
<g style="mix-blend-mode:multiply" opacity="0.5">
<g style="mix-blend-mode:multiply" opacity="0.5">
<path d="M17.7432 22.907H13.3248C12.5025 22.907 11.8359 23.5665 11.8359 24.3801V36.4985C11.8359 37.3121 12.5025 37.9716 13.3248 37.9716H17.7432C18.5655 37.9716 19.232 37.3121 19.232 36.4985V24.3801C19.232 23.5665 18.5655 22.907 17.7432 22.907Z" fill="black"/>
</g>
<g style="mix-blend-mode:multiply" opacity="0.5">
<path d="M37.7033 24.3324H37.4355C37.754 24.3474 38.0723 24.2983 38.3712 24.1881C38.67 24.0778 38.9431 23.9087 39.1739 23.691C39.4047 23.4732 39.5884 23.2114 39.714 22.9214C39.8395 22.6313 39.9043 22.3191 39.9043 22.0035C39.9043 21.688 39.8395 21.3757 39.714 21.0857C39.5884 20.7956 39.4047 20.5338 39.1739 20.3161C38.9431 20.0983 38.67 19.9292 38.3712 19.819C38.0723 19.7087 37.754 19.6596 37.4355 19.6747H29.8894C30.8213 18.2281 32.0799 15.8966 32.0799 14.0208C32.0799 11.0269 30.425 9.3631 29.3431 9.17235C28.8824 9.07042 28.3996 9.14638 27.9935 9.3847C27.5874 9.62302 27.2886 10.0057 27.1581 10.4547C26.8474 11.3608 27.3991 13.0723 27.1581 13.6817C26.8581 14.6249 25.1711 15.8966 22.9325 18.7474C21.7162 20.353 21.1044 22.3282 21.2026 24.3324V34.5274C21.2026 34.9124 21.3572 35.2817 21.6324 35.554C21.9076 35.8263 22.2809 35.9793 22.6701 35.9793H36.691C36.9231 35.9921 37.1553 35.958 37.3736 35.879C37.5919 35.8 37.7915 35.6778 37.9604 35.5198C38.1293 35.3618 38.2638 35.1714 38.3558 34.9602C38.4477 34.749 38.4951 34.5215 38.4951 34.2916C38.4951 34.0616 38.4477 33.8341 38.3558 33.6229C38.2638 33.4117 38.1293 33.2213 37.9604 33.0633C37.7915 32.9053 37.5919 32.7831 37.3736 32.7041C37.1553 32.6251 36.9231 32.591 36.691 32.6039H36.9535C37.5074 32.6039 38.0387 32.3862 38.4304 31.9986C38.8221 31.6111 39.0422 31.0854 39.0422 30.5373C39.0422 29.9892 38.8221 29.4636 38.4304 29.0761C38.0387 28.6885 37.5074 28.4708 36.9535 28.4708H37.7033C38.2396 28.4439 38.745 28.2142 39.1151 27.8291C39.4851 27.444 39.6914 26.9329 39.6914 26.4016C39.6914 25.8702 39.4851 25.3592 39.1151 24.9741C38.745 24.589 38.2396 24.3592 37.7033 24.3324Z" fill="black"/>
</g>
</g>
<path d="M16.1367 20.7874H11.7184C10.8961 20.7874 10.2295 21.4469 10.2295 22.2605V34.379C10.2295 35.1925 10.8961 35.8521 11.7184 35.8521H16.1367C16.959 35.8521 17.6256 35.1925 17.6256 34.379V22.2605C17.6256 21.4469 16.959 20.7874 16.1367 20.7874Z" fill="#FDFDFD"/>
<path d="M36.0968 22.2128H35.829C36.1476 22.2278 36.4659 22.1788 36.7647 22.0685C37.0635 21.9583 37.3366 21.7891 37.5674 21.5714C37.7982 21.3537 37.982 21.0918 38.1075 20.8018C38.2331 20.5117 38.2978 20.1995 38.2978 19.884C38.2978 19.5684 38.2331 19.2562 38.1075 18.9661C37.982 18.6761 37.7982 18.4142 37.5674 18.1965C37.3366 17.9788 37.0635 17.8097 36.7647 17.6994C36.4659 17.5892 36.1476 17.5401 35.829 17.5551H28.283C29.2149 16.1085 30.4734 13.777 30.4734 11.9012C30.4734 8.90738 28.8185 7.24354 27.7367 7.05278C27.2759 6.95086 26.7932 7.02681 26.3871 7.26513C25.981 7.50345 25.6822 7.88616 25.5516 8.3351C25.241 9.2412 25.7926 10.9527 25.5516 11.5621C25.2517 12.5053 23.5647 13.777 21.326 16.6278C20.1097 18.2334 19.4979 20.2086 19.5962 22.2128V32.4078C19.5962 32.5985 19.6341 32.7873 19.7079 32.9634C19.7816 33.1396 19.8897 33.2996 20.026 33.4344C20.1622 33.5693 20.324 33.6762 20.502 33.7492C20.6801 33.8221 20.8709 33.8597 21.0636 33.8597H35.0846C35.3167 33.8726 35.5489 33.8385 35.7672 33.7595C35.9854 33.6805 36.1851 33.5582 36.354 33.4002C36.5229 33.2423 36.6574 33.0519 36.7493 32.8407C36.8412 32.6295 36.8887 32.402 36.8887 32.172C36.8887 31.9421 36.8412 31.7145 36.7493 31.5033C36.6574 31.2922 36.5229 31.1017 36.354 30.9438C36.1851 30.7858 35.9854 30.6636 35.7672 30.5846C35.5489 30.5056 35.3167 30.4715 35.0846 30.4843H35.347C35.901 30.4843 36.4323 30.2666 36.824 29.879C37.2157 29.4915 37.4357 28.9659 37.4357 28.4178C37.4357 27.8697 37.2157 27.344 36.824 26.9565C36.4323 26.5689 35.901 26.3512 35.347 26.3512H36.0968C36.6332 26.3244 37.1386 26.0946 37.5086 25.7095C37.8787 25.3244 38.085 24.8134 38.085 24.282C38.085 23.7507 37.8787 23.2396 37.5086 22.8545C37.1386 22.4694 36.6332 22.2397 36.0968 22.2128Z" fill="#FDFDFD"/>
</svg>
